# xmcd
#
# Track frame offsets:
#	150
#	14117
#	32365
#	47237
#	65562
#	84687
#	99552
#	114557
#	132802
#	148660
#	166812
#	182357
#	200447
#	215305
#
# Disc length: 3051 seconds
#
# Revision: 7
# Processed by: cddbd v1.5.2PL0 Copyright (c) Steve Scherf et al.
# Submitted via: EZCDAudioConverter 8.2.2.1
#
DISCID=c10be90e
DTITLE=LEANDRO and LEONARDO - EM NOME DO AMOR [CD 2097-2) GLOBO CONTINENTAL
DYEAR=1996
DGENRE=SERTANEJO
TTITLE0=NÃO APRENDI A DIZER ADEUS (BY GILMAR SINISTRO)
TTITLE1=TEMPORAL DE AMOR (BY GILMAR SINISTRO)
TTITLE2=MEXE MEXE (BY GILMAR SINISTRO)
TTITLE3=SONHO POR SONHO (BY GILMAR SINISTRO)
TTITLE4=EU JURO (I SWEAR) (BY GILMAR SINISTRO)
TTITLE5=NÃO OLHE ASSIM (BY GILMAR SINISTRO)
TTITLE6=ENTRE TAPAS E BEIJOS (BY GILMAR SINISTRO)
TTITLE7=EM NOME DO AMOR (BY GILMAR SINISTRO)
TTITLE8=PAZ NA CAMA (BY GILMAR SINISTRO)
TTITLE9=FESTA DE RODEIO (BY GILMAR SINISTRO)
TTITLE10=PRA NUNCA DIZER ADEUS (BY GILMAR SINISTRO)
TTITLE11=SOLIDÃO (BY GILMAR SINISTRO)
TTITLE12=PENSE EM MIM (BY GILMAR SINISTRO)
TTITLE13=CADÊ VOCÊ (BY GILMAR SINISTRO)
EXTD=
EXTT0=
EXTT1=
EXTT2=
EXTT3=
EXTT4=
EXTT5=
EXTT6=
EXTT7=
EXTT8=
EXTT9=
EXTT10=
EXTT11=
EXTT12=
EXTT13=
PLAYORDER=
